<svg width="12" height="12" fill="none" xmlns="http://www.w3.org/2000/svg"><path fill-rule="evenodd" clip-rule="evenodd" d="M0 6c0-3.308 2.692-6 6-6s6 2.692 6 6-2.692 6-6 6-6-2.692-6-6zm11.077 0A5.07 5.07 0 006 .923 5.07 5.07 0 00.923 6 5.07 5.07 0 006 11.077 5.07 5.07 0 0011.077 6z" fill="#717D83"/><path d="M6.525 7.194H5.79l-.057-4.592h.852l-.061 4.592zM5.703 8.59c0-.132.04-.241.119-.33.082-.09.202-.136.36-.136.158 0 .278.046.36.137a.464.464 0 01.124.33.464.464 0 01-.124.329c-.082.085-.202.127-.36.127-.158 0-.278-.042-.36-.127a.474.474 0 01-.119-.33z" fill="#717D83"/></svg>