<svg width="117" height="150" fill="none" xmlns="http://www.w3.org/2000/svg"><g opacity=".5" fill="#243036" fill-opacity=".57"><path d="M9.5 149.08h98.16c5.14 0 9.34-4.2 9.34-9.32V9.31C117 4.2 112.79 0 107.66 0H9.5A9.36 9.36 0 00.15 9.31v130.45c0 5.12 4.21 9.32 9.35 9.32zM7.28 9.3c0-1.2 1.02-2.21 2.22-2.21h98.16c1.2 0 2.22 1.01 2.22 2.21v130.45c0 1.2-1.02 2.21-2.22 2.21H9.5a2.25 2.25 0 01-2.22-2.21V9.3z"/><path d="M93.6 117.79H23.56v7.1H93.6v-7.1zM93.6 96.6H23.56v7.1H93.6v-7.1zM32.97 53.91h3.08c2.14 0 3.78-.11 4.9-.33a6.86 6.86 0 002.45-1.1 6.38 6.38 0 002-2.3c.51-.98.77-2.2.77-3.62 0-1.86-.44-3.38-1.35-4.55a6.14 6.14 0 00-3.37-2.29c-.87-.23-2.75-.35-5.62-.35h-7.59v23.34h4.73v-8.8zm0-10.58h2.29c1.7 0 2.83.05 3.4.15.76.14 1.4.48 1.9 1.03.5.56.75 1.25.75 2.1a3.1 3.1 0 01-2.02 2.96c-.62.25-1.87.37-3.73.37h-2.59v-6.61zM63.13 62.22a8.2 8.2 0 003.32-1.87 10.41 10.41 0 002.52-4.12c.47-1.39.72-3.05.72-4.97 0-2.19-.26-4.02-.77-5.51a10.16 10.16 0 00-2.23-3.79 7.81 7.81 0 00-3.53-2.15c-1.02-.3-2.5-.44-4.46-.44h-8.64v23.34h8.9c1.74 0 3.13-.17 4.17-.5zm-8.35-3.45V43.31h2.12c1.93 0 3.22.07 3.88.22.89.19 1.62.56 2.19 1.1.58.54 1.02 1.3 1.34 2.25.32.98.47 2.35.47 4.16 0 1.8-.15 3.23-.47 4.28a4.9 4.9 0 01-1.24 2.25c-.5.45-1.14.78-1.91.98-.58.15-1.54.22-2.86.22h-3.52zM78.45 52.8h9.78v-3.96h-9.78v-5.51h11.33v-3.96H73.72v23.34h4.73V52.8z"/></g></svg>