<svg width="12" height="12" fill="none" xmlns="http://www.w3.org/2000/svg"><path fill-rule="evenodd" clip-rule="evenodd" d="M6 0C2.692 0 0 2.692 0 6s2.692 6 6 6 6-2.692 6-6-2.692-6-6-6zm0 .923A5.07 5.07 0 0111.077 6 5.07 5.07 0 016 11.077 5.07 5.07 0 01.923 6 5.07 5.07 0 016 .923zM5.687 6.61c-.073.202-.112.478-.118.826h.813c0-.445.107-.786.32-1.024l.48-.474c.474-.498.712-1.004.712-1.516 0-.519-.156-.926-.466-1.222-.308-.299-.739-.448-1.292-.448-.533 0-.967.146-1.301.44-.331.29-.5.672-.505 1.146h.813c0-.266.09-.479.272-.637.182-.158.422-.237.72-.237.308 0 .543.088.704.263.161.173.242.413.242.721 0 .32-.123.618-.37.897l-.575.593c-.226.246-.375.47-.449.672zM5.652 8.5a.474.474 0 00-.118.33c0 .131.04.241.118.329.082.085.202.127.36.127.159 0 .279-.042.361-.127a.464.464 0 00.123-.33.464.464 0 00-.123-.33c-.082-.09-.202-.135-.36-.135-.159 0-.279.045-.36.136z" fill="#717D83"/></svg>