<svg width="14" height="12" fill="none" xmlns="http://www.w3.org/2000/svg"><path d="M11 7.25c0-.14-.1-.25-.25-.25h-.5c-.14 0-.25.1-.25.25v2.5c0 .69-.56 1.25-1.25 1.25h-6.5C1.56 11 1 10.44 1 9.75v-6.5C1 2.56 1.56 2 2.25 2h5.5c.14 0 .25-.1.25-.25v-.5C8 1.11 7.9 1 7.75 1h-5.5C1.01 1 0 2 0 3.25v6.5C0 10.99 1 12 2.25 12h6.5C9.99 12 11 11 11 9.75v-2.5zM14 .5a.5.5 0 00-.5-.5h-4a.5.5 0 00-.5.5c0 .13.05.26.15.35l1.37 1.38-5.09 5.09a.27.27 0 00-.08.18c0 .06.03.13.08.18l.89.89c.05.05.12.08.18.08s.13-.03.18-.08l5.1-5.1 1.37 1.38c.1.1.22.15.35.15a.5.5 0 00.5-.5v-4z" fill="#0382CE"/></svg>