<svg width="92" height="116" fill="none" xmlns="http://www.w3.org/2000/svg"><path d="M8.17 116h75.77a7.25 7.25 0 007.21-7.25V7.25A7.25 7.25 0 0083.94 0H8.17A7.25 7.25 0 00.95 7.25v101.5A7.26 7.26 0 008.17 116zM6.45 7.25c0-.94.79-1.73 1.72-1.73h75.77c.93 0 1.72.8 1.72 1.73v101.5c0 .93-.8 1.72-1.72 1.72H8.17c-.93 0-1.72-.79-1.72-1.72V7.25z" fill="#243036" fill-opacity=".57"/><path d="M73.1 91.65H19.01v5.53H73.1v-5.53zM73.1 75.17H19.01v5.52H73.1v-5.52zM26.29 41.95h2.38c1.65 0 2.91-.09 3.78-.26a5.27 5.27 0 003.43-2.65c.4-.76.6-1.7.6-2.81 0-1.45-.35-2.63-1.04-3.54a4.74 4.74 0 00-2.6-1.78c-.68-.18-2.13-.27-4.35-.27h-5.85V48.8h3.65v-6.85zm0-8.24h1.76c1.32 0 2.19.04 2.63.12.59.11 1.08.38 1.47.8.39.44.57.98.57 1.64a2.35 2.35 0 01-1.56 2.3c-.48.2-1.44.3-2.88.3h-2V33.7zM49.57 48.41a6.31 6.31 0 002.56-1.45 8.11 8.11 0 001.94-3.2 12 12 0 00.56-3.87c0-1.7-.2-3.13-.59-4.3a7.92 7.92 0 00-1.73-2.94 6.02 6.02 0 00-2.72-1.67c-.79-.23-1.93-.34-3.44-.34h-6.67V48.8h6.87c1.34 0 2.42-.13 3.22-.39zm-6.45-2.68V33.7h1.64c1.49 0 2.48.06 3 .17.68.15 1.24.44 1.68.86.45.42.8 1 1.04 1.75.25.76.37 1.83.37 3.24 0 1.4-.12 2.51-.37 3.32-.25.82-.57 1.4-.96 1.76-.39.35-.88.6-1.47.76-.45.11-1.19.17-2.2.17h-2.73zM61.4 41.08h7.55v-3.07H61.4v-4.3h8.74v-3.07h-12.4V48.8h3.66v-7.72z" fill="#243036" fill-opacity=".57"/></svg>