<svg width="20" height="20" fill="none" xmlns="http://www.w3.org/2000/svg"><path fill-rule="evenodd" clip-rule="evenodd" d="M7.72.63L7.84 0h4.32l.12.63.46 2.28c.73.29 1.4.7 2 1.18l2.23-.77.6-.2.31.56 1.54 2.64.31.55-.45.41-1.73 1.52c0 .07.02.14.03.2.06.33.11.66.11 1 0 .34-.05.67-.1 1l-.04.2 1.73 1.52.45.4-.3.56-1.55 2.64-.3.55-.61-.19-2.24-.77c-.6.49-1.26.9-1.99 1.18l-.46 2.29-.12.62H7.84l-.12-.63-.46-2.28c-.73-.29-1.4-.7-2-1.18l-2.23.77-.6.2-.32-.56-1.53-2.64-.32-.55.46-.41 1.73-1.52-.03-.2c-.06-.33-.11-.66-.11-1 0-.34.05-.67.1-1l.04-.2L.72 7.28l-.46-.4.32-.56L2.1 3.68l.32-.56.6.2 2.23.77c.6-.49 1.27-.9 2-1.18L7.72.62zm3.2.9H9.08l-.39 2-.1.46-.43.14c-.87.28-1.67.74-2.33 1.35l-.34.31-.43-.14-1.95-.67-.9 1.56L3.74 7.9l.36.29-.12.45a6.08 6.08 0 000 2.7l.12.45-.36.3-1.54 1.36.91 1.56 1.95-.67.43-.14.34.3a6.17 6.17 0 002.33 1.36l.44.14.1.46.38 2h1.82l.39-2 .1-.46.43-.14a6.17 6.17 0 002.33-1.35l.33-.31.44.14 1.94.67.92-1.56-1.54-1.37-.34-.29.1-.45a6.08 6.08 0 000-2.7l-.12-.45.36-.3 1.54-1.36-.92-1.56-1.94.67-.44.14-.33-.3a6.17 6.17 0 00-2.33-1.36L11.39 4l-.1-.46-.38-2zM10 6.16A3.86 3.86 0 006.15 10 3.86 3.86 0 0010 13.85 3.86 3.86 0 0013.85 10 3.86 3.86 0 0010 6.15zM12.3 10A2.3 2.3 0 0010 7.7 2.3 2.3 0 007.7 10a2.3 2.3 0 002.3 2.3 2.3 2.3 0 002.3-2.3z" fill="#fff"/></svg>