<svg width="17" height="17" fill="none" xmlns="http://www.w3.org/2000/svg"><path fill-rule="evenodd" clip-rule="evenodd" d="M8.5 0l-.18.04L.53 2.17 0 2.32V17h7.79v-2.83h1.42V17H17V2.32l-.53-.15L8.67.04 8.5 0zm0 1.46l7.08 1.92v12.2h-4.96V12.77H6.38v2.83H1.41V3.39L8.5 1.45zm-4.96 2.8v1.42h1.42V4.27H3.54zm2.83 0v1.42H7.8V4.27H6.37zm2.84 0v1.42h1.42V4.27H9.2zm2.83 0v1.42h1.42V4.27h-1.42zM3.54 7.1V8.5h1.42V7.1H3.54zm2.83 0V8.5H7.8V7.1H6.37zm2.84 0V8.5h1.42V7.1H9.2zm2.83 0V8.5h1.42V7.1h-1.42zm-8.5 2.83v1.41h1.42V9.93H3.54zm2.83 0v1.41H7.8V9.93H6.37zm2.84 0v1.41h1.42V9.93H9.2zm2.83 0v1.41h1.42V9.93h-1.42zm-8.5 2.83v1.41h1.42v-1.41H3.54zm8.5 0v1.41h1.42v-1.41h-1.42z" fill="#fff"/></svg>