<svg width="12" height="12" viewBox="0 0 12 12" fill="none" xmlns="http://www.w3.org/2000/svg">
<path fill-rule="evenodd" clip-rule="evenodd" d="M6 0C2.69171 0 0 2.69171 0 6C0 9.30829 2.69171 12 6 12C9.30829 12 12 9.30829 12 6C12 2.69171 9.30829 0 6 0ZM6.00005 0.923084C8.80896 0.923084 11.077 3.19111 11.077 6C11.077 8.80889 8.80896 11.0769 6.00005 11.0769C3.19114 11.0769 0.923096 8.80889 0.923096 6C0.923096 3.19111 3.19114 0.923084 6.00005 0.923084ZM5.6875 6.61021C5.61426 6.81236 5.57471 7.08775 5.56885 7.43638H6.38184C6.38184 6.99107 6.48877 6.64976 6.70264 6.41246L7.18164 5.93785C7.65625 5.4398 7.89355 4.93443 7.89355 4.42173C7.89355 3.90318 7.73828 3.49595 7.42773 3.20006C7.12012 2.90123 6.68945 2.75181 6.13574 2.75181C5.60254 2.75181 5.16895 2.8983 4.83496 3.19127C4.50391 3.48131 4.33545 3.86363 4.32959 4.33824H5.14258C5.14258 4.07164 5.2334 3.85923 5.41504 3.70103C5.59668 3.54283 5.83691 3.46373 6.13574 3.46373C6.44336 3.46373 6.67773 3.55162 6.83887 3.7274C7 3.90025 7.08057 4.14048 7.08057 4.4481C7.08057 4.76744 6.95752 5.06627 6.71143 5.34459L6.13574 5.93785C5.91016 6.18394 5.76074 6.40806 5.6875 6.61021ZM5.65234 8.49986C5.57324 8.58775 5.53369 8.69761 5.53369 8.82945C5.53369 8.96129 5.57324 9.07115 5.65234 9.15904C5.73438 9.244 5.85449 9.28648 6.0127 9.28648C6.1709 9.28648 6.29102 9.244 6.37305 9.15904C6.45508 9.07115 6.49609 8.96129 6.49609 8.82945C6.49609 8.69761 6.45508 8.58775 6.37305 8.49986C6.29102 8.40904 6.1709 8.36363 6.0127 8.36363C5.85449 8.36363 5.73438 8.40904 5.65234 8.49986Z" fill="#717D83"/>
</svg>
