<svg width="17" height="17" viewBox="0 0 17 17" fill="none" xmlns="http://www.w3.org/2000/svg">
<path fill-rule="evenodd" clip-rule="evenodd" d="M11.4602 10.0833H10.7323L10.4793 9.83217C11.3731 8.78992 11.9167 7.43875 11.9167 5.95833C11.9167 2.6675 9.24917 0 5.95833 0C2.6675 0 0 2.6675 0 5.95833C0 9.24917 2.6675 11.9167 5.95833 11.9167C7.43875 11.9167 8.789 11.374 9.83125 10.4812L10.0843 10.7323V11.4583L14.6658 16.0334L16.0325 14.6667L11.4602 10.0833V10.0833ZM5.95833 10.0833C3.6795 10.0833 1.83333 8.23717 1.83333 5.95833C1.83333 3.68042 3.6795 1.83333 5.95833 1.83333C8.23625 1.83333 10.0833 3.68042 10.0833 5.95833C10.0833 8.23717 8.23625 10.0833 5.95833 10.0833V10.0833Z" fill="white"/>
</svg>
