<svg width="20" height="20" viewBox="0 0 20 20" fill="none" xmlns="http://www.w3.org/2000/svg">
<path fill-rule="evenodd" clip-rule="evenodd" d="M7.71635 0.625L7.83654 0H12.1635L12.2837 0.625L12.7404 2.90865C13.4736 3.19712 14.1346 3.60276 14.7356 4.08654L16.9712 3.31731L17.5721 3.125L17.8846 3.67788L19.4231 6.32212L19.7356 6.875L19.2788 7.28365L17.5481 8.79808C17.5592 8.86718 17.5708 8.93629 17.5824 9.00551C17.6372 9.33056 17.6923 9.65813 17.6923 10C17.6923 10.3419 17.6372 10.6694 17.5824 10.9945C17.5708 11.0637 17.5592 11.1328 17.5481 11.2019L19.2788 12.7163L19.7356 13.125L19.4231 13.6779L17.8846 16.3221L17.5721 16.875L16.9712 16.6827L14.7356 15.9135C14.1346 16.3972 13.4736 16.8029 12.7404 17.0913L12.2837 19.375L12.1635 20H7.83654L7.71635 19.375L7.25962 17.0913C6.52644 16.8029 5.86538 16.3972 5.26442 15.9135L3.02885 16.6827L2.42788 16.875L2.11538 16.3221L0.576923 13.6779L0.264423 13.125L0.721154 12.7163L2.45192 11.2019C2.44085 11.1328 2.42921 11.0637 2.41756 10.9945C2.36284 10.6694 2.30769 10.3419 2.30769 10C2.30769 9.65813 2.36284 9.33056 2.41756 9.0055C2.42921 8.93631 2.44085 8.86716 2.45192 8.79808L0.721154 7.28365L0.264423 6.875L0.576923 6.32212L2.11538 3.67788L2.42788 3.125L3.02885 3.31731L5.26442 4.08654C5.86538 3.60276 6.52644 3.19712 7.25962 2.90865L7.71635 0.625ZM10.9135 1.53846H9.08654L8.70192 3.53365L8.60577 3.99038L8.17308 4.13462C7.29868 4.40805 6.50541 4.87079 5.84135 5.48077L5.50481 5.79327L5.07212 5.64904L3.125 4.97596L2.21154 6.53846L3.75 7.90865L4.11058 8.19711L3.99038 8.65385C3.89123 9.09255 3.84615 9.54026 3.84615 10C3.84615 10.4597 3.89123 10.9075 3.99038 11.3462L4.11058 11.8029L3.75 12.0913L2.21154 13.4615L3.125 15.024L5.07212 14.351L5.50481 14.2067L5.84135 14.5192C6.50541 15.1292 7.29868 15.5919 8.17308 15.8654L8.60577 16.0096L8.70192 16.4663L9.08654 18.4615H10.9135L11.2981 16.4663L11.3942 16.0096L11.8269 15.8654C12.7013 15.5919 13.4946 15.1292 14.1587 14.5192L14.4952 14.2067L14.9279 14.351L16.875 15.024L17.7885 13.4615L16.25 12.0913L15.9135 11.8029L16.0096 11.3462C16.1088 10.9075 16.1538 10.4597 16.1538 10C16.1538 9.54026 16.1088 9.09255 16.0096 8.65385L15.8894 8.19711L16.25 7.90865L17.7885 6.53846L16.875 4.97596L14.9279 5.64904L14.4952 5.79327L14.1587 5.48077C13.4946 4.87079 12.7013 4.40805 11.8269 4.13462L11.3942 3.99038L11.2981 3.53365L10.9135 1.53846ZM10 6.15385C7.88461 6.15385 6.15385 7.88462 6.15385 10C6.15385 12.1154 7.88461 13.8462 10 13.8462C12.1154 13.8462 13.8462 12.1154 13.8462 10C13.8462 7.88462 12.1154 6.15385 10 6.15385ZM12.3077 10C12.3077 8.71695 11.2831 7.69231 10 7.69231C8.71695 7.69231 7.69231 8.71695 7.69231 10C7.69231 11.2831 8.71695 12.3077 10 12.3077C11.2831 12.3077 12.3077 11.2831 12.3077 10Z" fill="white"/>
</svg>
