<svg width="12" height="12" viewBox="0 0 12 12" fill="none" xmlns="http://www.w3.org/2000/svg">
<path fill-rule="evenodd" clip-rule="evenodd" d="M0 6C0 2.69171 2.69171 0 6 0C9.30829 0 12 2.69171 12 6C12 9.30829 9.30829 12 6 12C2.69171 12 0 9.30829 0 6ZM11.077 6C11.077 3.19111 8.80896 0.923084 6.00005 0.923084C3.19114 0.923084 0.923096 3.19111 0.923096 6C0.923096 8.80889 3.19114 11.0769 6.00005 11.0769C8.80896 11.0769 11.077 8.80889 11.077 6Z" fill="#717D83"/>
<path d="M6.5249 7.19385H5.79102L5.73389 2.60156H6.58643L6.5249 7.19385ZM5.70312 8.59131C5.70312 8.45947 5.74268 8.34961 5.82178 8.26172C5.90381 8.1709 6.02393 8.12549 6.18213 8.12549C6.34033 8.12549 6.46045 8.1709 6.54248 8.26172C6.62451 8.34961 6.66553 8.45947 6.66553 8.59131C6.66553 8.72314 6.62451 8.83301 6.54248 8.9209C6.46045 9.00586 6.34033 9.04834 6.18213 9.04834C6.02393 9.04834 5.90381 9.00586 5.82178 8.9209C5.74268 8.83301 5.70312 8.72314 5.70312 8.59131Z" fill="#717D83"/>
</svg>
