<svg width="29" height="37" fill="none" xmlns="http://www.w3.org/2000/svg"><path d="M2.32 37h24.36A2.32 2.32 0 0029 34.69V2.3A2.32 2.32 0 0026.68 0H2.32A2.32 2.32 0 000 2.31V34.7A2.32 2.32 0 002.32 37zM1.77 2.31c0-.3.25-.55.55-.55h24.36c.3 0 .55.25.55.55V34.7c0 .3-.25.55-.55.55H2.32a.56.56 0 01-.55-.55V2.3z" fill="#0382CE" fill-opacity=".8"/><path d="M23.2 13.23H5.8V15h17.4v-1.77zM23.2 7.98H5.8v1.76h17.4V7.98zM23.2 23.26H5.8v1.76h17.4v-1.76zM23.2 18H5.8v1.76h17.4V18z" fill="#0382CE" fill-opacity=".8"/></svg>