<svg width="14" height="12" viewBox="0 0 14 12" fill="none" xmlns="http://www.w3.org/2000/svg">
<path d="M11 7.25C11 7.10937 10.8906 7 10.75 7H10.25C10.1094 7 10 7.10937 10 7.25V9.75C10 10.4375 9.4375 11 8.75 11H2.25C1.5625 11 1 10.4375 1 9.75V3.25C1 2.5625 1.5625 2 2.25 2H7.75C7.89063 2 8 1.89062 8 1.75V1.25C8 1.10937 7.89063 0.999999 7.75 0.999999H2.25C1.00781 0.999999 0 2.00781 0 3.25V9.75C0 10.9922 1.00781 12 2.25 12H8.75C9.99219 12 11 10.9922 11 9.75V7.25ZM14 0.5C14 0.226562 13.7734 -9.53674e-07 13.5 -9.53674e-07H9.5C9.22656 -9.53674e-07 9 0.226562 9 0.5C9 0.632812 9.05469 0.757812 9.14844 0.851562L10.5234 2.22656L5.42969 7.32031C5.38281 7.36719 5.35156 7.4375 5.35156 7.5C5.35156 7.5625 5.38281 7.63281 5.42969 7.67969L6.32031 8.57031C6.36719 8.61719 6.4375 8.64844 6.5 8.64844C6.5625 8.64844 6.63281 8.61719 6.67969 8.57031L11.7734 3.47656L13.1484 4.85156C13.2422 4.94531 13.3672 5 13.5 5C13.7734 5 14 4.77344 14 4.5V0.5Z" fill="#0382CE"/>
</svg>
