<svg width="117" height="150" viewBox="0 0 117 150" fill="none" xmlns="http://www.w3.org/2000/svg">
<g opacity="0.5">
<path d="M9.49905 149.078H107.655C112.797 149.078 116.999 144.883 116.999 139.764V9.31383C116.999 4.18838 112.79 0 107.655 0H9.49905C4.35659 0 0.154296 4.19548 0.154296 9.31383V139.757C0.154296 144.883 4.36371 149.078 9.49905 149.078ZM7.27682 9.31383C7.27682 8.11411 8.29534 7.09896 9.49905 7.09896H107.655C108.858 7.09896 109.877 8.11411 109.877 9.31383V139.757C109.877 140.957 108.858 141.972 107.655 141.972H9.49905C8.29534 141.972 7.27682 140.957 7.27682 139.757V9.31383Z" fill="#243036" fill-opacity="0.57"/>
<path d="M93.6035 117.787H23.5605V124.886H93.6035V117.787Z" fill="#243036" fill-opacity="0.57"/>
<path d="M93.6035 96.6074H23.5605V103.706H93.6035V96.6074Z" fill="#243036" fill-opacity="0.57"/>
<path d="M32.9696 53.9117H36.0536C38.1904 53.9117 39.8286 53.7981 40.9539 53.5781C41.7873 53.4006 42.5992 53.0243 43.4041 52.4706C44.2089 51.9169 44.8713 51.1431 45.3913 50.1706C45.9112 49.198 46.1748 47.9841 46.1748 46.5572C46.1748 44.6973 45.726 43.1781 44.8215 42.0068C43.9169 40.8283 42.7916 40.0758 41.4525 39.7209C40.5764 39.4866 38.7032 39.373 35.8257 39.373H28.2402V62.7144H32.9696V53.9117ZM32.9696 43.3272H35.2559C36.9582 43.3272 38.0907 43.3769 38.6605 43.4762C39.4226 43.6182 40.0565 43.959 40.5622 44.5127C41.0679 45.0664 41.3101 45.7621 41.3101 46.614C41.3101 47.3026 41.132 47.9131 40.7759 48.4242C40.4198 48.9495 39.9283 49.3329 39.2944 49.5743C38.6676 49.8156 37.4212 49.9434 35.5551 49.9434H32.9696V43.3272Z" fill="#243036" fill-opacity="0.57"/>
<path d="M63.1323 62.2175C64.5283 61.7703 65.6395 61.1527 66.4514 60.3505C67.534 59.2998 68.3745 57.9226 68.9657 56.226C69.4429 54.8417 69.6851 53.1805 69.6851 51.2638C69.6851 49.0702 69.4286 47.2387 68.9229 45.7479C68.4101 44.25 67.6623 42.9864 66.6865 41.9642C65.7107 40.9348 64.5355 40.2178 63.1608 39.8132C62.1352 39.515 60.6537 39.373 58.7021 39.373H50.0625V62.7144H58.9657C60.6964 62.7073 62.0924 62.544 63.1323 62.2175ZM54.7776 58.7745V43.313H56.9001C58.8303 43.313 60.1195 43.384 60.7819 43.533C61.6651 43.7176 62.3987 44.0868 62.9685 44.6263C63.5454 45.1658 63.9942 45.9254 64.3076 46.8837C64.6281 47.8563 64.7848 49.2335 64.7848 51.0437C64.7848 52.8469 64.6281 54.2738 64.3076 55.3173C63.987 56.3609 63.5739 57.1204 63.0682 57.5677C62.5625 58.022 61.9286 58.3486 61.1594 58.5473C60.5753 58.6964 59.6209 58.7674 58.3033 58.7674H54.7776V58.7745Z" fill="#243036" fill-opacity="0.57"/>
<path d="M78.454 52.7972H88.2332V48.8431H78.454V43.3272H89.7788V39.373H73.7246V62.7144H78.454V52.7972Z" fill="#243036" fill-opacity="0.57"/>
</g>
</svg>
