<svg width="450" height="266" fill="none" xmlns="http://www.w3.org/2000/svg"><g opacity=".6" fill="#8A9499"><path d="M172.55 69.23c-44.02-21.68-76.1-53.79-84.9-63.11a20.08 20.08 0 00-6.36-4.65c-3.64-1.63-6.8-1.7-9.13-.19-3 1.93-2.97 5.58-2.26 8.64C65.63 5.3 58.27-1.28 52.15.22a4.97 4.97 0 00-3.73 3.88c-1.7 6.66 5.03 21.23 19.16 36.25a65.09 65.09 0 01-8.33-6.98c-2.53-2.65-5.77-3.23-8.24-1.49-2.73 1.94-4.28 6.68-1.24 12.55 4.53 8.76 14.25 19.34 26.35 28.78-2.4-.16-5.33.1-7.14 1.9-1.74 1.73-2.09 4.47-1.04 8.14 3.31 11.54 21.93 19.49 28.94 22.47.25.12.49.22.7.3a10.72 10.72 0 000 7.79c2.6 7.1 11.57 13.26 26.7 18.3-1.64.97-3.7 2.65-4.58 5.2-.95 2.76-.3 5.86 1.91 9.22 3.92 5.94 25.99 14.47 47.24 14.47 3.97 0 7.91-.3 11.7-.96 18.28-3.23 30.14-14.18 34.28-31.69.32-1.22 8.33-34.2-42.28-59.12zM50.26 4.56c.35-1.38 1.12-2.2 2.35-2.5 7.75-1.9 18.95 12.71 19.28 13.16.58.94 13.46 21.39 36.78 35.16.08.05.17.05.25.07.3 3.7 1.5 7.92 4.6 11.98a19.75 19.75 0 00-3.54 6.9.9.9 0 00-.37-.38C90.57 58.89 76.47 46.4 76.26 46.22c-18.36-16.7-27.79-34.62-26-41.66zm1.2 39c-2.4-4.65-1.49-8.61.66-10.13 1.7-1.2 3.85-.74 5.75 1.25 5.5 5.77 16.31 12.47 17.19 13 .76.68 14.8 12.98 33.66 22.94.14.08.3.12.45.12.18 0 .36-.07.51-.17a17.1 17.1 0 00-.31 4.82c.48 6.21 4.3 12.14 11.36 17.62-.1.43-.24 1.06-.35 1.84-20.4-8.79-39.29-20.37-40.1-20.87-13.26-9.82-24.03-21.2-28.82-30.42zm18.31 39.16c-.84-2.95-.66-5.06.56-6.27 1.05-1.05 2.84-1.38 4.6-1.38a18 18 0 014.44.58c1.65 1.01 20.44 12.45 40.6 21.1.07.03.15.03.22.04a23.72 23.72 0 005.88 16.97c-10.93-2.73-26.59-9-26.84-9.1l-1.61-.69c-6.13-2.61-24.79-10.58-27.85-21.25zm29.62 30.5a8.79 8.79 0 01-.05-6.46c3.51 1.38 17.55 6.8 27.25 9.1l.22.03c.33 0 .64-.17.8-.45 2.2 2.2 5 4.31 8.6 6.25.19 1.61 1 6.53 4.03 11.58-6.5-.42-13-2.2-13.16-2.25-19.72-6.2-25.94-13.1-27.69-17.8zM213 127.85l-.01.04c-4.01 16.96-15.04 27.14-32.77 30.26-24.72 4.36-53.11-6.78-57-12.68-1.88-2.84-2.45-5.38-1.71-7.54 1.04-3.06 4.43-4.63 5.37-5.01a73.2 73.2 0 0014.32 2.3h.05c.09 0 .17-.03.26-.05a25.93 25.93 0 0011.74 9.07c.12.04.24.06.35.06a.95.95 0 00.35-1.83c-14.81-5.85-15.86-21.3-15.87-21.45a.96.96 0 00-.51-.79c-20.18-10.6-15.07-26.61-14.84-27.3a.94.94 0 00-.33-1.05c-6.92-5.24-10.66-10.84-11.12-16.62-.57-7.1 4.13-12.1 4.17-12.16a.95.95 0 00.05-1.25c-8.33-10.24-3.32-21.4-3.1-21.87a.95.95 0 00-1.74-.8c-.03.07-1.73 3.84-1.8 9.07C86.25 34.6 73.87 14.78 73.52 14.2c-.15-.3-4.41-8.7-.31-11.33 2.22-1.44 5.2-.62 7.3.33 2.06.92 4 2.34 5.76 4.2 8.84 9.4 41.13 41.7 85.44 63.52 49.81 24.54 41.38 56.62 41.29 56.94z"/><path d="M175.29 126.32c-15.73-3.68-19.63-7.87-20.14-10.73-.5-2.9 2.37-5.41 3.5-6.27a70.56 70.56 0 007.3 1.87c.45 0 .84-.3.94-.76a.95.95 0 00-.75-1.12c-.05 0-3.57-.72-6.96-1.83-.1-.08-.19-.16-.31-.2-.14-.05-13.95-4.19-14.03-11.41-.02-1.76.46-2.95 1.48-3.66 2-1.41 5.81-.66 7.75-.06a51.23 51.23 0 009.69 6.33.96.96 0 001.28-.43.95.95 0 00-.42-1.27 49.58 49.58 0 01-8.63-5.54.93.93 0 00-.36-.53c-.67-.49-1.54-1.16-2.52-1.95v-.01h-.02c-4.52-3.67-11.3-9.97-11.72-13.99-.08-.8.11-1.46.58-2 3.23-3.57 19.7 6.28 29.33 13.33a.95.95 0 101.13-1.53c-4.4-3.22-26.57-18.98-31.88-13.06a4.3 4.3 0 00-1.06 3.45c.5 4.72 7.38 11.1 11.67 14.65-1.98-.22-4.25-.11-5.91 1.05-1.55 1.08-2.32 2.84-2.3 5.23.08 6.14 7.53 10.14 12.05 12 .5.24 1.04.47 1.6.69-1.62 1.44-3.85 4.1-3.3 7.33.87 4.99 8.13 9.12 21.58 12.26l.22.03c.43 0 .83-.3.93-.73a.97.97 0 00-.72-1.14z"/></g><g opacity=".6" fill="#8A9499"><path d="M447.1 31.89c-2.48-1.75-5.71-1.17-8.25 1.49-2.19 2.3-5.34 4.8-8.32 6.97 14.12-15.02 20.86-29.59 19.16-36.25a4.99 4.99 0 00-3.74-3.88c-6.11-1.5-13.47 5.08-17.75 9.7.72-3.06.74-6.7-2.26-8.64-2.33-1.5-5.49-1.44-9.12.2a20.07 20.07 0 00-6.37 4.64c-8.78 9.32-40.87 41.43-84.9 63.1-50.62 24.94-42.6 57.93-42.27 59.14 4.14 17.5 16 28.45 34.28 31.68 3.79.66 7.72.96 11.7.96 21.25 0 43.32-8.53 47.24-14.47 2.21-3.36 2.86-6.46 1.9-9.21-.87-2.56-2.94-4.24-4.57-5.21 15.13-5.04 24.1-11.2 26.7-18.3 1.29-3.56.57-6.38 0-7.78l.7-.3c7-3 25.62-10.94 28.93-22.49 1.05-3.66.7-6.4-1.03-8.13-1.81-1.8-4.75-2.06-7.14-1.9 12.09-9.44 21.8-20.02 26.35-28.78 3.04-5.86 1.48-10.61-1.24-12.54zm-1.6-29.82c1.22.3 1.99 1.12 2.34 2.5 1.8 7.03-7.64 24.96-26 41.65-.21.19-14.3 12.67-33.35 22.73a.93.93 0 00-.37.39 19.73 19.73 0 00-3.54-6.9c3.1-4.07 4.3-8.28 4.6-11.99.08-.02.17-.02.24-.07 23.33-13.77 36.2-34.21 36.78-35.16.35-.44 11.56-15.05 19.3-13.15zm-68.9 135.86c.75 2.17.18 4.72-1.7 7.56-3.9 5.9-32.29 17.02-57 12.68-17.74-3.13-28.76-13.3-32.77-30.26l-.01-.04c-.1-.32-8.53-32.4 41.28-56.93 44.31-21.82 76.6-54.13 85.44-63.51 1.76-1.88 3.7-3.3 5.76-4.22 1.28-.57 2.89-1.1 4.45-1.1 1 0 1.99.22 2.85.77 4.17 2.69-.19 11.1-.31 11.35-.42.67-12.78 20.43-35.34 34.04-.07-5.22-1.77-9-1.8-9.06a.95.95 0 00-1.73.8c.22.46 5.22 11.62-3.11 21.86-.3.37-.28.9.05 1.26.04.05 4.74 5.05 4.17 12.15-.46 5.79-4.2 11.38-11.12 16.62-.33.25-.46.68-.33 1.07.06.16 5.39 16.65-14.84 27.28a.95.95 0 00-.5.8c-.02.15-1.03 15.58-15.88 21.44a.95.95 0 10.7 1.77 25.9 25.9 0 0011.74-9.07c.09.02.17.05.26.05h.05a73.28 73.28 0 0014.32-2.3c.95.38 4.32 1.92 5.37 5zm22.11-24.71c-1.75 4.7-7.97 11.61-27.69 17.8-.15.05-6.66 1.83-13.15 2.26a30.31 30.31 0 004.02-11.59 36.9 36.9 0 008.6-6.24.95.95 0 001.02.41c9.7-2.28 23.74-7.7 27.26-9.1a8.8 8.8 0 01-.06 6.46zm29.07-36.76c1.21 1.2 1.4 3.31.55 6.26-3.06 10.68-21.71 18.64-27.84 21.25l-1.61.7c-.25.1-15.9 6.37-26.84 9.1a23.7 23.7 0 005.88-16.97c.07-.01.15-.02.22-.05 20.16-8.65 38.95-20.08 40.6-21.09 1.9-.51 6.93-1.31 9.04.8zm18.86-32.9c-4.78 9.23-15.56 20.6-28.82 30.43-.81.5-19.7 12.08-40.1 20.87-.1-.78-.24-1.4-.34-1.84 7.05-5.48 10.88-11.4 11.36-17.62a17.2 17.2 0 00-.31-4.81c.15.1.33.16.51.16.15 0 .3-.04.45-.11a190.37 190.37 0 0033.66-22.94c.87-.53 11.69-7.24 17.19-13 1.9-2 4.04-2.47 5.75-1.25 2.14 1.5 3.05 5.47.65 10.11z"/><path d="M341.54 108.58c.56-.22 1.1-.45 1.6-.69 4.51-1.86 11.97-5.86 12.03-12 .03-2.39-.74-4.15-2.29-5.23-1.66-1.16-3.93-1.27-5.91-1.05 4.28-3.55 11.17-9.93 11.66-14.65a4.29 4.29 0 00-1.06-3.45c-5.3-5.92-27.48 9.84-31.87 13.06a.95.95 0 00-.2 1.33c.31.42.9.51 1.33.2 9.63-7.05 26.1-16.9 29.32-13.32.48.53.67 1.18.59 2-.52 4.89-10.48 13.17-14.27 15.95a.92.92 0 00-.35.53c-2.03 1.62-5 3.73-8.63 5.54a.95.95 0 10.85 1.7 51.66 51.66 0 009.7-6.33c1.94-.6 5.74-1.35 7.75.06 1.01.7 1.5 1.9 1.48 3.65-.08 7.22-13.9 11.37-14.03 11.41-.13.04-.22.13-.32.2a69.9 69.9 0 01-6.96 1.84.95.95 0 10.38 1.86c.2-.04 3.67-.74 7.1-1.86 1.15.87 4.01 3.37 3.5 6.27-.5 2.87-4.39 7.05-20.12 10.74a.94.94 0 00-.7 1.14.96.96 0 001.14.7c13.45-3.14 20.71-7.27 21.58-12.26.55-3.25-1.69-5.9-3.3-7.34z"/></g><path d="M104.1 181.67c-6.27-12.32-20.16-14.43-32.65-15.77-17.15-1.84-32.69-8.44-41-24.35a.93.93 0 00-.9-.55 1 1 0 00-.81.33A353.06 353.06 0 00.2 174.1c-.33.43-.24.86.04 1.16 6.03 11.58 16.72 20.39 29.52 23.62 14.83 3.75 35.56.45 43.81 16.57.22.43.58.58.94.54.36.04.73-.1.95-.54a86.88 86.88 0 0128.24-32.29c.23-.15.36-.35.43-.56.12-.27.13-.6-.04-.93zM74.5 212.62c-6.7-10.74-20.16-12.66-31.96-13.93-8.7-.93-16.85-2.42-24.38-7.1a44.4 44.4 0 01-15.69-16.85 346.25 346.25 0 0126.82-30.82c6.23 11.03 17.06 19.06 29.41 22.17 14.65 3.7 34.5.58 43.04 15.82a89.12 89.12 0 00-27.24 30.71z" fill="#8A9499"/><path d="M27.88 188.5a38.73 38.73 0 01-19.03-14.88c-.3-.44-1-.03-.7.4a39.68 39.68 0 0019.51 15.26c.5.18.72-.6.22-.79zM23.7 182.28c.5.17.72-.62.23-.79a22.8 22.8 0 01-10.74-7.63c-.32-.4-1.04 0-.71.41a23.74 23.74 0 0011.23 8.01zM40.54 161c-5-2.3-9.08-5.9-11.96-10.58-.27-.45-.99-.04-.7.41a28.07 28.07 0 0012.25 10.88c.47.22.9-.48.41-.7zM97.15 178.57a41.22 41.22 0 00-20.8-6.15c-.53-.01-.53.8 0 .82 7.34.18 14.14 2.2 20.38 6.04.46.28.87-.43.42-.7zM89.4 180a27.93 27.93 0 00-8.65-3.6c-.51-.11-.73.68-.21.8 3.02.69 5.83 1.85 8.45 3.5.45.28.86-.43.42-.7zM59.28 197.06c-.53-.07-.52.75 0 .81 5.21.66 10 2.52 14.3 5.52.43.3.84-.4.4-.7a32.32 32.32 0 00-14.7-5.63zM66.02 196.87c2.37.26 4.51 1.14 6.41 2.56.42.31.83-.4.42-.7a13.7 13.7 0 00-6.83-2.68c-.52-.05-.52.76 0 .82zM46.13 184.86l-4.26-3.08-2.85 3.92-1.41-1.02 2.85-3.92-2.36-1.71.88-1.22 2.36 1.71 1.25-1.72-2.36-1.7.88-1.21 2.36 1.7 6.38-8.78 5.74 4.16c1.77 1.28 2.83 2.73 3.17 4.35a5.74 5.74 0 01-1.15 4.75c-1.15 1.57-2.52 2.44-4.13 2.61-1.6.16-3.3-.4-5.11-1.7L44 178.84l-1.26 1.72 4.26 3.08-.88 1.22zm-1.25-7.22l4.33 3.13c1.34.97 2.62 1.4 3.83 1.29a4.36 4.36 0 003.13-1.98 4.43 4.43 0 00.9-3.54 5.31 5.31 0 00-2.2-3.21l-4.5-3.26-5.49 7.57zM277.74 232.59c6.09-12 19.58-14.05 31.71-15.35 16.66-1.8 31.75-8.22 39.81-23.7a.9.9 0 01.88-.54c.26-.02.55.06.8.32a343.29 343.29 0 0127.7 31.9c.32.42.23.83-.04 1.12-5.86 11.28-16.24 19.85-28.67 23-14.4 3.64-34.54.43-42.55 16.13a.9.9 0 01-.9.52.89.89 0 01-.94-.52 84.51 84.51 0 00-27.42-31.43 1.07 1.07 0 01-.42-.55c-.11-.27-.13-.58.04-.9zm28.76 30.12c6.5-10.45 19.58-12.33 31.04-13.56 8.45-.9 16.36-2.36 23.68-6.9a43.17 43.17 0 0015.23-16.41 337.06 337.06 0 00-26.04-30c-6.05 10.73-16.57 18.55-28.57 21.58-14.22 3.6-33.5.57-41.8 15.4a86.68 86.68 0 0126.46 29.9z" fill="#8A9499"/><path d="M351.76 239.23a37.62 37.62 0 0018.49-14.48c.28-.43.97-.03.69.4a38.54 38.54 0 01-18.96 14.84c-.49.18-.7-.59-.22-.76zM355.82 233.18c-.49.17-.7-.6-.21-.77a22.15 22.15 0 0010.43-7.42c.3-.4 1 0 .69.4a23.05 23.05 0 01-10.91 7.79zM339.47 212.47a26.55 26.55 0 0011.62-10.3c.26-.44.95-.04.69.4a27.27 27.27 0 01-11.9 10.59c-.47.21-.88-.47-.41-.69zM284.5 229.57a39.97 39.97 0 0120.2-5.99c.51-.01.51.78 0 .8a39 39 0 00-19.8 5.88c-.44.27-.84-.42-.4-.69zM292.01 230.95a27.1 27.1 0 018.4-3.49c.5-.11.72.66.22.77-2.94.68-5.66 1.8-8.21 3.4-.44.28-.84-.4-.4-.68zM321.27 247.56c.51-.06.5.73 0 .8a30.57 30.57 0 00-13.88 5.37c-.42.3-.82-.4-.4-.69a31.33 31.33 0 0114.28-5.48zM314.73 247.38c-2.3.25-4.39 1.1-6.23 2.49-.41.3-.8-.38-.4-.69a13.29 13.29 0 016.63-2.6c.5-.05.5.74 0 .8zM336.81 233.4l-3.94 2.66 2.46 3.64-1.3.88-2.46-3.64-2.19 1.48-.76-1.12 2.18-1.48-1.08-1.6-2.19 1.48-.75-1.12 2.19-1.48-5.52-8.15 5.31-3.6c1.65-1.1 3.21-1.55 4.7-1.34a5.21 5.21 0 013.69 2.45c.99 1.46 1.3 2.9.95 4.32-.36 1.4-1.37 2.68-3.03 3.82l-4.04 2.73 1.08 1.6 3.94-2.67.76 1.13zm-6.54-1.18l4-2.72c1.25-.84 2.01-1.79 2.3-2.85a3.94 3.94 0 00-.72-3.28 4.03 4.03 0 00-2.74-1.87 4.82 4.82 0 00-3.42.88l-4.17 2.81 4.75 7.03z" fill="#8A9499"/><path d="M206.84 218.4c.42.13.6-.53.18-.65a48.91 48.91 0 01-14.13-6.67c-.36-.25-.7.34-.34.58a49.53 49.53 0 0014.3 6.74z" fill="#8A9499" fill-opacity=".6"/><path d="M218.47 216.44c0-.34-.2-.66-.65-.75-10.86-2.1-21.12-6.54-29.3-14.09-8.23-7.57-13.64-17.43-17.07-27.97a.88.88 0 00-.94-.62c-.06 0-.11-.02-.17 0-9.5 1.31-18.89 3.27-28.38 4.59-.54.07-.7.5-.63.9 0 .08-.02.14 0 .21 2.25 13.02 6.73 25.7 14.6 36.42 7.7 10.46 18.07 18.3 29.78 23.77.14.07.28.1.4.1.17.01.34-.01.52-.1 11.5-5.6 22.51-12.62 31.6-21.7.23-.23.29-.5.24-.76zm-32.3 20.67c-11.56-5.47-21.84-13.3-29.3-23.77-7.22-10.14-11.4-21.94-13.61-34.12 8.93-1.27 17.77-3.07 26.7-4.34 3.53 10.53 9.03 20.41 17.27 28 8 7.38 17.93 11.94 28.5 14.22-8.61 8.29-18.86 14.76-29.57 20.01z" fill="#8A9499" fill-opacity=".6"/><path d="M146.91 182.52c-.1-.43-.76-.25-.66.18a60.19 60.19 0 006.23 15.67c.22.38.8.03.59-.35a59.62 59.62 0 01-6.16-15.5zM150.66 184.89c-.05-.43-.73-.44-.68 0a16.8 16.8 0 002.78 7.34c.25.36.84.02.59-.34a16.05 16.05 0 01-2.69-7zM184.17 232.92a54.49 54.49 0 01-13.31-9.65c-.31-.3-.8.17-.48.48a55.04 55.04 0 0013.44 9.75c.4.2.74-.38.35-.58zM182.7 229.08a14.92 14.92 0 01-5.06-3.4c-.3-.32-.79.16-.48.48a15.73 15.73 0 005.37 3.57c.4.17.58-.5.18-.65zM173.85 189.21c.29.33.77-.16.48-.48a26.64 26.64 0 01-5.8-10.24c-.12-.42-.78-.24-.65.18 1.2 3.95 3.2 7.48 5.97 10.54zM171.5 210.24l-1.67-2.75-2.54 1.55-.55-.91 2.53-1.55-.92-1.52.78-.48.93 1.53 1.11-.68-.92-1.53.77-.47.93 1.52 5.68-3.45 2.25 3.7a4.5 4.5 0 01.75 3.22c-.18 1-.77 1.8-1.77 2.4-1.02.63-2 .8-2.94.5a4.6 4.6 0 01-2.48-2.17l-1.71-2.81-1.12.68 1.67 2.74-.78.48zm1-4.38l1.7 2.8a3.47 3.47 0 001.86 1.63c.7.22 1.45.1 2.22-.37a2.72 2.72 0 001.36-1.79c.16-.73 0-1.5-.48-2.34l-1.77-2.9-4.89 2.98z" fill="#8A9499" fill-opacity=".6"/></svg>